<svg id="Logo" xmlns="http://www.w3.org/2000/svg" xmlns:xlink="http://www.w3.org/1999/xlink" width="130" height="130" viewBox="0 0 130 130">
  <defs>
    <clipPath id="clip-path">
      <rect id="Rectangle_737" data-name="Rectangle 737" width="130" height="130" fill="none"/>
    </clipPath>
  </defs>
  <g id="Group_642" data-name="Group 642">
    <g id="Group_641" data-name="Group 641" clip-path="url(#clip-path)">
      <path id="Path_1219" data-name="Path 1219" d="M65.584,1a64.583,64.583,0,1,0,64.584,64.583A64.583,64.583,0,0,0,65.584,1m0,111.61a47.027,47.027,0,1,1,47.027-47.027A47.027,47.027,0,0,1,65.584,112.61" transform="translate(-0.583 -0.583)" fill="#ffe000" fill-rule="evenodd"/>
      <path id="Path_1220" data-name="Path 1220" d="M17.517,170.137l-.224-1.97a4,4,0,0,1-.01-.825,2.018,2.018,0,0,1,.2-.722,1.425,1.425,0,0,1,.467-.535,1.7,1.7,0,0,1,.8-.271,1.842,1.842,0,0,1,.916.089,1.371,1.371,0,0,1,.584.454,2.157,2.157,0,0,1,.338.72,5.842,5.842,0,0,1,.167.883l.085.745,2.426-.276.118,1.043Zm2.351-1.961c-.017-.149-.04-.3-.069-.462a1.44,1.44,0,0,0-.15-.432.794.794,0,0,0-.286-.3.745.745,0,0,0-.478-.076.736.736,0,0,0-.422.165.778.778,0,0,0-.215.326,1.276,1.276,0,0,0-.065.418,3.994,3.994,0,0,0,.024.433l.085.745,1.647-.187Z" transform="translate(-10.074 -96.734)" fill="#1d1d1b"/>
      <path id="Path_1221" data-name="Path 1221" d="M17.676,146.5a.974.974,0,0,0-.371.432,1.565,1.565,0,0,0-.135.583,1.474,1.474,0,0,0,.028.355.966.966,0,0,0,.121.313.7.7,0,0,0,.228.23.686.686,0,0,0,.342.1.542.542,0,0,0,.466-.19,2.041,2.041,0,0,0,.295-.505q.129-.3.251-.665a2.759,2.759,0,0,1,.327-.663,1.675,1.675,0,0,1,.528-.5,1.515,1.515,0,0,1,.849-.175,1.85,1.85,0,0,1,.821.207,1.687,1.687,0,0,1,.569.493,2.044,2.044,0,0,1,.323.7,2.877,2.877,0,0,1,.084.828,3.093,3.093,0,0,1-.225,1.051,2.04,2.04,0,0,1-.65.85l-.735-.821a1.321,1.321,0,0,0,.474-.486,1.412,1.412,0,0,0,.188-.655,1.375,1.375,0,0,0-.036-.369,1.125,1.125,0,0,0-.137-.339.778.778,0,0,0-.245-.251.68.68,0,0,0-.35-.105.616.616,0,0,0-.508.189,1.845,1.845,0,0,0-.316.5q-.132.3-.255.666a2.824,2.824,0,0,1-.322.662,1.634,1.634,0,0,1-.52.5,1.488,1.488,0,0,1-.844.175,1.587,1.587,0,0,1-.784-.218,1.717,1.717,0,0,1-.534-.513,2.15,2.15,0,0,1-.3-.708,2.978,2.978,0,0,1-.077-.8,2.91,2.91,0,0,1,.176-.9,2.1,2.1,0,0,1,.5-.769Z" transform="translate(-9.465 -85.01)" fill="#1d1d1b"/>
      <path id="Path_1222" data-name="Path 1222" d="M21.561,126.109l-3.739,1.521.255-1.291,2.585-.968-2.021-1.893.242-1.226,2.881,2.827,2.477.489-.2,1.03Z" transform="translate(-10.398 -71.329)" fill="#1d1d1b"/>
      <path id="Path_1223" data-name="Path 1223" d="M27.092,102.324a1.756,1.756,0,0,0-.659.424,1.689,1.689,0,0,0-.325.532,2.039,2.039,0,0,0-.14.833,1.894,1.894,0,0,0,.2.755,2.031,2.031,0,0,0,.482.623,2.293,2.293,0,0,0,.72.427,2.542,2.542,0,0,0,.87.172,2.053,2.053,0,0,0,.792-.142,1.921,1.921,0,0,0,.654-.435,2,2,0,0,0,.448-.717,1.526,1.526,0,0,0,.085-.711,1.9,1.9,0,0,0-.289-.781l.882-.594a2.361,2.361,0,0,1,.4,1.194,3.036,3.036,0,0,1-.2,1.234,3.447,3.447,0,0,1-.649,1.1,2.812,2.812,0,0,1-2.067.961,3.259,3.259,0,0,1-1.26-.225,3.409,3.409,0,0,1-1.122-.672,2.88,2.88,0,0,1-.7-.952,2.826,2.826,0,0,1-.242-1.142,3.439,3.439,0,0,1,.235-1.251,2.881,2.881,0,0,1,.591-.966,2.59,2.59,0,0,1,1.011-.638Z" transform="translate(-14.576 -59.132)" fill="#1d1d1b"/>
      <path id="Path_1224" data-name="Path 1224" d="M32.834,84.111l.534-.9,2.022,1.2,1.4-2.373-2.022-1.2.535-.9,5.076,3-.534.9-2.237-1.324-1.4,2.373,2.237,1.324-.534.9Z" transform="translate(-19.157 -46.637)" fill="#1d1d1b"/>
      <path id="Path_1225" data-name="Path 1225" d="M49.692,66.7a3.423,3.423,0,0,1-.816-1.023,2.891,2.891,0,0,1-.318-1.136,2.835,2.835,0,0,1,.173-1.154A3.453,3.453,0,0,1,49.39,62.3a3.5,3.5,0,0,1,.987-.819,2.769,2.769,0,0,1,1.12-.338,2.878,2.878,0,0,1,1.168.158,3.387,3.387,0,0,1,1.119.669,3.279,3.279,0,0,1,.794,1,2.89,2.89,0,0,1,.307,1.13,2.971,2.971,0,0,1-.173,1.166,3.506,3.506,0,0,1-.655,1.11,3.434,3.434,0,0,1-.991.8,2.809,2.809,0,0,1-2.273.176,3.275,3.275,0,0,1-1.1-.652m.674-.872a2.53,2.53,0,0,0,.755.466,2.051,2.051,0,0,0,.792.145,1.912,1.912,0,0,0,.764-.178,1.993,1.993,0,0,0,.671-.514,2.032,2.032,0,0,0,.423-.737,1.906,1.906,0,0,0,.077-.785,2.052,2.052,0,0,0-.249-.765,2.534,2.534,0,0,0-.563-.686,2.286,2.286,0,0,0-.717-.433,2.046,2.046,0,0,0-.776-.131,1.879,1.879,0,0,0-.761.187,2.067,2.067,0,0,0-.671.52,2.033,2.033,0,0,0-.423.731,1.89,1.89,0,0,0-.081.776,2.052,2.052,0,0,0,.233.752,2.308,2.308,0,0,0,.525.652" transform="translate(-28.328 -35.671)" fill="#1d1d1b"/>
      <path id="Path_1226" data-name="Path 1226" d="M64.773,49.321l.812-.665,3.136,3.829L70.66,50.9l.6.735L68.51,53.884Z" transform="translate(-37.792 -28.389)" fill="#1d1d1b"/>
      <path id="Path_1227" data-name="Path 1227" d="M83.122,38.032a3.416,3.416,0,0,1-.436-1.233,2.884,2.884,0,0,1,.071-1.177,2.832,2.832,0,0,1,.542-1.034,3.436,3.436,0,0,1,.979-.814,3.5,3.5,0,0,1,1.2-.451,2.766,2.766,0,0,1,1.169.047A2.871,2.871,0,0,1,87.7,33.9a3.372,3.372,0,0,1,.839,1,3.27,3.27,0,0,1,.422,1.208,2.881,2.881,0,0,1-.081,1.169,2.968,2.968,0,0,1-.544,1.046,3.512,3.512,0,0,1-.982.834,3.456,3.456,0,0,1-1.2.43,2.809,2.809,0,0,1-2.206-.577,3.286,3.286,0,0,1-.827-.977m.922-.6a2.534,2.534,0,0,0,.561.687,2.058,2.058,0,0,0,.7.4,1.921,1.921,0,0,0,.781.081,2,2,0,0,0,.8-.267,2.022,2.022,0,0,0,.641-.558,1.905,1.905,0,0,0,.33-.716,2.045,2.045,0,0,0,.015-.8,2.523,2.523,0,0,0-.307-.832,2.308,2.308,0,0,0-.536-.644,2.045,2.045,0,0,0-.691-.377,1.884,1.884,0,0,0-.78-.072,2.074,2.074,0,0,0-.8.272,2.043,2.043,0,0,0-.639.552,1.887,1.887,0,0,0-.33.707,2.049,2.049,0,0,0-.025.786,2.3,2.3,0,0,0,.283.789" transform="translate(-48.226 -19.418)" fill="#1d1d1b"/>
      <path id="Path_1228" data-name="Path 1228" d="M112.052,27.636a5.1,5.1,0,0,1-2.119,1.345,3.45,3.45,0,0,1-1.257.2,2.811,2.811,0,0,1-2.059-.98,3.285,3.285,0,0,1-.629-1.114,3.409,3.409,0,0,1-.2-1.293,2.886,2.886,0,0,1,.29-1.143,2.83,2.83,0,0,1,.725-.914,3.454,3.454,0,0,1,1.114-.616,4.789,4.789,0,0,1,1.25-.257,2.616,2.616,0,0,1,1.189.2l-.479.992a1.94,1.94,0,0,0-.788-.178,2.413,2.413,0,0,0-.856.135,2.047,2.047,0,0,0-.731.422,1.906,1.906,0,0,0-.457.633,2.048,2.048,0,0,0-.172.769,2.3,2.3,0,0,0,.13.827,2.538,2.538,0,0,0,.422.78,2.054,2.054,0,0,0,.615.52,1.919,1.919,0,0,0,.751.226,1.989,1.989,0,0,0,.838-.112,3.661,3.661,0,0,0,.689-.315,2.15,2.15,0,0,0,.519-.425l-.452-1.316-1.142.392-.309-.9,2.136-.733Z" transform="translate(-61.722 -13.335)" fill="#1d1d1b"/>
      <rect id="Rectangle_736" data-name="Rectangle 736" width="1.05" height="5.898" transform="matrix(0.983, -0.185, 0.185, 0.983, 53.624, 7.955)" fill="#1d1d1b"/>
      <path id="Path_1229" data-name="Path 1229" d="M147.523,17.674a1.761,1.761,0,0,0-.651-.435,1.7,1.7,0,0,0-.617-.087,2.038,2.038,0,0,0-.82.2,1.89,1.89,0,0,0-.614.48,2.028,2.028,0,0,0-.379.69,2.289,2.289,0,0,0-.106.831,2.528,2.528,0,0,0,.188.866,2.056,2.056,0,0,0,.445.671,1.917,1.917,0,0,0,.659.427,2.008,2.008,0,0,0,.836.126,1.526,1.526,0,0,0,.686-.2,1.9,1.9,0,0,0,.6-.575l.9.574a2.364,2.364,0,0,1-.935.846,3.041,3.041,0,0,1-1.211.309,3.452,3.452,0,0,1-1.263-.16,2.813,2.813,0,0,1-1.7-1.515,3.266,3.266,0,0,1-.294-1.245,3.414,3.414,0,0,1,.17-1.3,2.885,2.885,0,0,1,.6-1.017,2.832,2.832,0,0,1,.951-.676A3.434,3.434,0,0,1,146.2,16.2a2.871,2.871,0,0,1,1.121.158,2.582,2.582,0,0,1,.988.674Z" transform="translate(-83.572 -9.452)" fill="#1d1d1b"/>
      <path id="Path_1230" data-name="Path 1230" d="M167.18,17.371l.9.11,1.809,6.162L168.7,23.5l-.383-1.406-2.538-.309-.693,1.275-1.166-.142Zm.882,3.783-.612-2.491-1.208,2.27Z" transform="translate(-95.64 -10.135)" fill="#1d1d1b"/>
      <path id="Path_1231" data-name="Path 1231" d="M188.7,20.909l1.009.291-1.37,4.755,2.409.694-.263.913-3.418-.986Z" transform="translate(-109.147 -12.2)" fill="#1d1d1b"/>
      <path id="Path_1232" data-name="Path 1232" d="M220.126,33.064l.968.619-1.356,4.177.014.009L223.158,35l.87.556-1.194,4.28.014.009,3.264-2.955.9.574-4.624,4.044-.842-.539,1.268-4.519-.014-.009-3.57,3.047-.814-.521Z" transform="translate(-127.436 -19.292)" fill="#1d1d1b"/>
      <path id="Path_1233" data-name="Path 1233" d="M242.247,51.15l2.847,2.675-.651.692-2.082-1.956-.992,1.056,1.973,1.854-.65.692-1.973-1.854-1.1,1.165,2.192,2.059-.65.692-2.957-2.778Z" transform="translate(-138.984 -29.844)" fill="#1d1d1b"/>
      <path id="Path_1234" data-name="Path 1234" d="M256.6,66.823l.649.824-3.887,3.062,1.551,1.97-.746.588-2.2-2.795Z" transform="translate(-147.012 -38.988)" fill="#1d1d1b"/>
      <path id="Path_1235" data-name="Path 1235" d="M267.524,82.981l.526.908-4.283,2.479,1.256,2.17-.822.476-1.782-3.079Z" transform="translate(-153.11 -48.416)" fill="#1d1d1b"/>
      <path id="Path_1236" data-name="Path 1236" d="M276.3,100.835l.489,1.3-3.1,4.216.006.015,4.1-1.541.369.982-5.521,2.075-.469-1.248,3.209-4.32-.006-.016-4.235,1.591-.37-.983Z" transform="translate(-157.99 -58.833)" fill="#1d1d1b"/>
      <path id="Path_1237" data-name="Path 1237" d="M283.769,125.377l.725,3.84-.933.176-.53-2.808-1.425.269.5,2.66-.933.176-.5-2.66-1.572.3.558,2.955-.933.177-.753-3.987Z" transform="translate(-162.186 -73.152)" fill="#1d1d1b"/>
      <path id="Path_1238" data-name="Path 1238" d="M285.366,149.62a.968.968,0,0,0,.339-.457,1.551,1.551,0,0,0,.093-.591,1.485,1.485,0,0,0-.053-.352.954.954,0,0,0-.143-.3.693.693,0,0,0-.245-.213.682.682,0,0,0-.348-.072.539.539,0,0,0-.451.223,2.02,2.02,0,0,0-.258.525q-.106.312-.2.682a2.751,2.751,0,0,1-.278.684,1.671,1.671,0,0,1-.491.533,1.507,1.507,0,0,1-.834.236,1.853,1.853,0,0,1-.834-.147,1.691,1.691,0,0,1-.6-.451,2.04,2.04,0,0,1-.372-.676,2.879,2.879,0,0,1-.144-.821,3.12,3.12,0,0,1,.148-1.063,2.04,2.04,0,0,1,.588-.894l.792.766a1.317,1.317,0,0,0-.437.519,1.408,1.408,0,0,0-.079,1.032,1.127,1.127,0,0,0,.161.328.782.782,0,0,0,.262.233.683.683,0,0,0,.357.08.616.616,0,0,0,.492-.225,1.817,1.817,0,0,0,.279-.526q.111-.312.207-.682a2.8,2.8,0,0,1,.274-.684,1.644,1.644,0,0,1,.482-.533,1.489,1.489,0,0,1,.83-.235,1.583,1.583,0,0,1,.8.161,1.717,1.717,0,0,1,.57.473,2.148,2.148,0,0,1,.352.684,2.994,2.994,0,0,1,.134.8,2.908,2.908,0,0,1-.112.908,2.093,2.093,0,0,1-.44.8Z" transform="translate(-163.683 -85.454)" fill="#1d1d1b"/>
      <path id="Path_1239" data-name="Path 1239" d="M284.387,169.415a.967.967,0,0,0,.4-.4,1.553,1.553,0,0,0,.18-.57,1.457,1.457,0,0,0,0-.356.96.96,0,0,0-.1-.322.7.7,0,0,0-.21-.247.688.688,0,0,0-.334-.123.54.54,0,0,0-.479.154,2.019,2.019,0,0,0-.333.481q-.152.292-.3.644a2.752,2.752,0,0,1-.377.635,1.676,1.676,0,0,1-.565.454,1.522,1.522,0,0,1-.86.108,1.853,1.853,0,0,1-.8-.271,1.682,1.682,0,0,1-.529-.536,2.045,2.045,0,0,1-.267-.723,2.878,2.878,0,0,1-.019-.833,3.09,3.09,0,0,1,.305-1.029,2.043,2.043,0,0,1,.714-.8l.669.876a1.317,1.317,0,0,0-.509.447,1.415,1.415,0,0,0-.239.639,1.379,1.379,0,0,0,.007.37,1.129,1.129,0,0,0,.11.349.783.783,0,0,0,.224.27.684.684,0,0,0,.341.132.618.618,0,0,0,.521-.149,1.868,1.868,0,0,0,.354-.478q.156-.292.306-.644a2.809,2.809,0,0,1,.373-.636,1.634,1.634,0,0,1,.556-.454,1.489,1.489,0,0,1,.856-.109,1.588,1.588,0,0,1,.764.279,1.714,1.714,0,0,1,.493.553,2.142,2.142,0,0,1,.246.729,3.006,3.006,0,0,1,.014.806,2.915,2.915,0,0,1-.246.882,2.1,2.1,0,0,1-.555.727Z" transform="translate(-163.237 -96.668)" fill="#1d1d1b"/>
      <path id="Path_1240" data-name="Path 1240" d="M137.377,246.012l-12.418-12.417a47.021,47.021,0,0,1-68.35,0L44.191,246.012A64.4,64.4,0,0,0,84.167,265.54l.186.017c.477.047.956.091,1.436.127.159.012.319.02.478.031.388.027.776.054,1.165.074.279.014.559.022.839.032s.551.024.828.031q.84.022,1.685.022h.01q.84,0,1.675-.022c.282-.007.563-.021.844-.032s.548-.018.821-.032c.395-.02.788-.047,1.181-.075.154-.01.309-.018.463-.03q.728-.056,1.45-.129l.172-.015a64.4,64.4,0,0,0,39.976-19.529" transform="translate(-25.784 -136.292)" fill="#ee7329" fill-rule="evenodd"/>
      <path id="Path_1241" data-name="Path 1241" d="M180.31,133.347a.539.539,0,0,0,.244-.05.163.163,0,0,0,.1-.144.168.168,0,0,0-.068-.13.4.4,0,0,0-.233-.065c-.144,0-.305,0-.485-.014s-.337-.029-.484-.05a.856.856,0,0,1-.424-.169.679.679,0,0,1-.215-.323,2.178,2.178,0,0,1-.093-.456c-.029-.27-.047-.6-.061-1s-.018-.84-.022-1.335,0-1.023,0-1.587V120.77a.577.577,0,0,1,.036-.23.19.19,0,0,1,.115-.115,1.63,1.63,0,0,1,.37-.068c.154-.015.3-.018.449-.018a2.946,2.946,0,0,1,1.2.24,2.838,2.838,0,0,1,.7.449,3.026,3.026,0,0,1,.761.973,3.461,3.461,0,0,1,.305.969,4.617,4.617,0,0,1,.054.772A3.162,3.162,0,0,1,182.3,125a2.977,2.977,0,0,1-.628.933,2.822,2.822,0,0,1-.822.582,2.048,2.048,0,0,1-.844.2,1.4,1.4,0,0,0-.467.061c-.1.043-.158.1-.158.176a.17.17,0,0,0,.079.144.276.276,0,0,0,.158.05,1.118,1.118,0,0,0,.165.015c.075,0,.155,0,.23.007h.165a5.42,5.42,0,0,0,1.881-.33,4.6,4.6,0,0,0,1.507-.919,4.164,4.164,0,0,0,1.005-1.4,4.406,4.406,0,0,0,.366-1.784,2.821,2.821,0,0,0-.155-.923,3.407,3.407,0,0,0-.366-.754,2.879,2.879,0,0,0-.427-.521,3.761,3.761,0,0,0-.344-.273,3.5,3.5,0,0,0-.646-.341,4.95,4.95,0,0,0-1.034-.294,8.459,8.459,0,0,0-1.507-.125c-.219,0-.467,0-.746.007s-.564.007-.858.015-.574.01-.843.014-.5.007-.7.007-.427,0-.729-.011l-.976-.022c-.352-.007-.693-.01-1.03-.01a1.031,1.031,0,0,0-.319.036c-.075.029-.111.072-.111.136a.157.157,0,0,0,.09.144.478.478,0,0,0,.234.05c.143,0,.287,0,.427.015a1.844,1.844,0,0,1,.327.05,1.623,1.623,0,0,1,.47.194.665.665,0,0,1,.251.3,1.456,1.456,0,0,1,.1.5c0,.111.007.233.01.359s0,.28.007.456,0,.4,0,.664v5.628c0,.564,0,1.091,0,1.587s-.011.937-.022,1.328-.033.721-.061.983a2.041,2.041,0,0,1-.158.653.559.559,0,0,1-.4.316,1.99,1.99,0,0,1-.294.05c-.108.011-.233.014-.373.014a.391.391,0,0,0-.241.065.159.159,0,0,0-.061.13.155.155,0,0,0,.093.144.618.618,0,0,0,.273.05c.19,0,.4,0,.631-.011l.686-.022.625-.021c.186-.007.337-.011.448-.011.172,0,.42.007.743.018s.689.018,1.1.029.833.018,1.26.018" transform="translate(-101.61 -69.723)" fill="#ee7329"/>
      <path id="Path_1242" data-name="Path 1242" d="M83.717,114a.762.762,0,0,0,.273.04c.158,0,.312,0,.47.014a2.355,2.355,0,0,1,.37.05,1.3,1.3,0,0,1,.545.222.815.815,0,0,1,.28.395,2.28,2.28,0,0,1,.1.61c.007.133.015.276.022.424s.01.33.014.538,0,.47,0,.779,0,.7,0,1.159v5.456c0,.664,0,1.285,0,1.87s-.015,1.1-.029,1.565-.04.847-.075,1.152a4.451,4.451,0,0,1-.1.567,1.106,1.106,0,0,1-.187.409.529.529,0,0,1-.334.208c-.1.022-.208.043-.337.061a4.007,4.007,0,0,1-.438.025.56.56,0,0,0-.27.047.139.139,0,0,0-.075.126.172.172,0,0,0,.111.165.809.809,0,0,0,.319.05c.219,0,.459,0,.718-.011l.775-.022.711-.021c.212-.007.384-.011.51-.011.2,0,.481.007.829.018s.736.018,1.17.029.89.018,1.36.018a.8.8,0,0,0,.312-.05.173.173,0,0,0,.118-.165.139.139,0,0,0-.082-.126.554.554,0,0,0-.262-.047c-.112,0-.23,0-.363-.011l-.387-.032c-.13-.015-.244-.029-.348-.043a.8.8,0,0,1-.736-.614,2.712,2.712,0,0,1-.1-.549c-.035-.312-.061-.7-.075-1.166s-.025-.991-.029-1.572,0-1.206,0-1.87v-1.9c0-.054.014-.09.04-.1a.131.131,0,0,1,.09-.025h8.227a.133.133,0,0,1,.09.032.123.123,0,0,1,.04.1v1.9c0,.664,0,1.285,0,1.87s-.011,1.1-.029,1.565-.039.847-.075,1.152a4.383,4.383,0,0,1-.1.567,1.106,1.106,0,0,1-.187.409.528.528,0,0,1-.334.208c-.1.022-.208.043-.337.061a4,4,0,0,1-.438.025.559.559,0,0,0-.269.047.139.139,0,0,0-.075.126.175.175,0,0,0,.115.165.884.884,0,0,0,.337.05c.216,0,.449,0,.707-.011l.768-.022.707-.021c.212-.007.384-.011.51-.011.2,0,.481.007.829.018s.736.018,1.174.029.886.018,1.357.018a.806.806,0,0,0,.312-.05.174.174,0,0,0,.118-.165.139.139,0,0,0-.082-.126.554.554,0,0,0-.262-.047c-.108,0-.23,0-.363-.011l-.387-.032c-.129-.015-.244-.029-.348-.043a.9.9,0,0,1-.492-.2.936.936,0,0,1-.244-.409,2.656,2.656,0,0,1-.1-.549c-.036-.312-.061-.7-.075-1.166s-.025-.991-.029-1.572,0-1.206,0-1.87v-5.456c0-.459,0-.847,0-1.159s0-.571.007-.779.008-.388.011-.538.015-.291.022-.424a1.872,1.872,0,0,1,.2-.858.819.819,0,0,1,.6-.37c.13-.022.245-.04.345-.05a2.593,2.593,0,0,1,.28-.014.833.833,0,0,0,.291-.04.157.157,0,0,0,.1-.155.153.153,0,0,0-.112-.154,1.034,1.034,0,0,0-.341-.04c-.212,0-.449,0-.7.011s-.517.015-.775.022l-.711.021c-.215.007-.391.011-.524.011s-.337,0-.567-.011l-.764-.021c-.28-.007-.574-.018-.876-.022s-.6-.011-.893-.011a.932.932,0,0,0-.337.04.156.156,0,0,0-.115.154.16.16,0,0,0,.093.155.763.763,0,0,0,.273.04c.158,0,.312,0,.47.014a2.341,2.341,0,0,1,.369.05,1.3,1.3,0,0,1,.546.222.794.794,0,0,1,.28.395,2.263,2.263,0,0,1,.1.61c.011.133.018.276.022.424s.011.33.015.538,0,.47,0,.779,0,.7,0,1.159v2.118a.148.148,0,0,1-.04.115.12.12,0,0,1-.09.036H88.62a.125.125,0,0,1-.09-.036.146.146,0,0,1-.04-.115v-2.118c0-.459,0-.847,0-1.159s0-.571.007-.779.007-.388.011-.538.014-.291.021-.424a1.883,1.883,0,0,1,.2-.858.821.821,0,0,1,.6-.37c.129-.022.244-.04.345-.05a2.593,2.593,0,0,1,.28-.014.831.831,0,0,0,.29-.04.157.157,0,0,0,.1-.155.153.153,0,0,0-.111-.154,1.036,1.036,0,0,0-.341-.04c-.212,0-.449,0-.707.011s-.513.015-.771.022l-.711.021c-.215.007-.391.011-.524.011-.2,0-.467-.007-.8-.018s-.7-.021-1.105-.029-.8-.018-1.191-.018a.935.935,0,0,0-.338.04.156.156,0,0,0-.115.154.159.159,0,0,0,.093.155" transform="translate(-48.791 -66.313)" fill="#ee7329"/>
      <path id="Path_1243" data-name="Path 1243" d="M208.023,133.071c.28,0,.6,0,.962.015s.772.017,1.235.028.98.036,1.557.047,1.22.018,1.931.018a4.66,4.66,0,0,0,.549-.018.484.484,0,0,0,.3-.122.722.722,0,0,0,.162-.334,3.429,3.429,0,0,0,.086-.413c.029-.18.057-.373.082-.581s.047-.409.065-.592.025-.33.025-.438a1.041,1.041,0,0,0-.029-.287.164.164,0,0,0-.143-.144.159.159,0,0,0-.14.068.673.673,0,0,0-.075.212,2.573,2.573,0,0,1-.28.88,1.146,1.146,0,0,1-.539.477,2.549,2.549,0,0,1-.574.158c-.212.032-.427.054-.639.065s-.406.014-.574.014a7.07,7.07,0,0,1-1.515-.118,1.285,1.285,0,0,1-.8-.459,1.711,1.711,0,0,1-.252-.951c0-.14-.007-.327-.01-.564s0-.488,0-.761,0-.531,0-.779,0-.449,0-.61v-1.465a.38.38,0,0,1,.022-.136.087.087,0,0,1,.086-.057c.1,0,.251,0,.459,0s.434.007.693.014.51.011.761.018.474.015.664.025.323.014.395.025a1.691,1.691,0,0,1,.567.133.863.863,0,0,1,.327.244.956.956,0,0,1,.162.334,2.415,2.415,0,0,1,.04.348c.007.115.018.222.025.319a.143.143,0,0,0,.04.107.168.168,0,0,0,.133.043.14.14,0,0,0,.125-.072.449.449,0,0,0,.057-.165,1.4,1.4,0,0,0,.011-.172c0-.036,0-.1.007-.194s.011-.208.022-.33.014-.252.025-.377.022-.233.033-.327q.054-.458.086-.732c.021-.187.039-.323.05-.417a1.753,1.753,0,0,0,.015-.187.213.213,0,0,0-.043-.136.135.135,0,0,0-.107-.057.192.192,0,0,0-.126.068c-.043.047-.1.1-.176.169a.706.706,0,0,1-.348.2,3.439,3.439,0,0,1-.556.083c-.09.007-.248.014-.47.021s-.474.011-.757.011-.574.007-.858.007-.542,0-.761,0h-.47a.105.105,0,0,1-.1-.057.309.309,0,0,1-.025-.136v-4.523a.211.211,0,0,1,.032-.125.108.108,0,0,1,.1-.047c.082,0,.226,0,.427,0s.434.007.693.014.52.011.779.018.485.015.679.025.327.015.395.025a2.678,2.678,0,0,1,.711.14.842.842,0,0,1,.359.23,1.2,1.2,0,0,1,.18.3,1,1,0,0,1,.082.24,2.217,2.217,0,0,1,.036.244c.007.075.011.136.011.183a.4.4,0,0,0,.029.176.122.122,0,0,0,.122.061.151.151,0,0,0,.119-.061.389.389,0,0,0,.065-.125c.014-.047.025-.086.032-.115.011-.057.022-.14.032-.251s.022-.233.029-.359.018-.247.025-.355.018-.19.022-.24c.014-.277.036-.5.057-.653s.047-.277.065-.352a.969.969,0,0,0,.029-.179.237.237,0,0,0-.025-.119.1.1,0,0,0-.1-.054.485.485,0,0,0-.144.036,1.156,1.156,0,0,1-.157.05c-.079.01-.187.028-.327.054s-.294.04-.47.054c-.065,0-.223.007-.467.007s-.546,0-.9,0-.732,0-1.127,0-.779,0-1.148,0-.686,0-.958,0h-.567c-.183,0-.427,0-.729-.011l-.976-.022c-.352-.007-.693-.01-1.03-.01a1.03,1.03,0,0,0-.32.036c-.075.029-.111.072-.111.136a.157.157,0,0,0,.09.144.478.478,0,0,0,.233.05c.144,0,.287,0,.427.015a1.851,1.851,0,0,1,.327.05,1.628,1.628,0,0,1,.47.194.664.664,0,0,1,.251.3,1.448,1.448,0,0,1,.1.5c0,.111.008.233.011.359s0,.28.008.456,0,.4,0,.664v5.628c0,.564,0,1.091,0,1.583s-.011.941-.022,1.332-.033.721-.061.983a2.043,2.043,0,0,1-.158.653.559.559,0,0,1-.4.316,1.984,1.984,0,0,1-.294.05c-.108.011-.234.014-.374.014a.386.386,0,0,0-.24.065.157.157,0,0,0-.061.129.155.155,0,0,0,.093.144.618.618,0,0,0,.272.05c.2,0,.406,0,.632-.015s.452-.018.682-.028.438,0,.628-.011.337-.011.449-.011" transform="translate(-119.588 -69.512)" fill="#ee7329"/>
      <path id="Path_1244" data-name="Path 1244" d="M133.37,129.356a6.684,6.684,0,0,0,2.506,2.728,7.382,7.382,0,0,0,1.974.833,9.629,9.629,0,0,0,2.487.305,9.454,9.454,0,0,0,2.7-.377,7.652,7.652,0,0,0,2.208-1.052,6.975,6.975,0,0,0,1.647-1.615,7.078,7.078,0,0,0,1.034-2.06,8.008,8.008,0,0,0,.355-2.391,7.325,7.325,0,0,0-.539-2.842,5.952,5.952,0,0,0-1.543-2.157,6.946,6.946,0,0,0-2.441-1.368,10.255,10.255,0,0,0-3.23-.481,9.993,9.993,0,0,0-2.584.316,7.556,7.556,0,0,0-2.032.851,6.658,6.658,0,0,0-1.515,1.249,6.949,6.949,0,0,0-1.033,1.507,7.171,7.171,0,0,0-.592,1.633,7.079,7.079,0,0,0-.19,1.615,7.61,7.61,0,0,0,.19,1.662,7.292,7.292,0,0,0,.6,1.644m2.286-6.188a5.006,5.006,0,0,1,.736-1.619,3.861,3.861,0,0,1,1.051-1.019,4.255,4.255,0,0,1,1.238-.531,5.426,5.426,0,0,1,3.439.3,5.208,5.208,0,0,1,1.744,1.3,6.12,6.12,0,0,1,1.17,2.061,8.391,8.391,0,0,1,.427,2.731,9.949,9.949,0,0,1-.23,2.243,5.73,5.73,0,0,1-.6,1.587,4.2,4.2,0,0,1-.843,1.044,3.833,3.833,0,0,1-.955.607,3.976,3.976,0,0,1-.937.283,4.37,4.37,0,0,1-.786.072,5.525,5.525,0,0,1-2.405-.524,5.2,5.2,0,0,1-1.8-1.432,6.575,6.575,0,0,1-1.134-2.143,8.765,8.765,0,0,1-.391-2.641,9.057,9.057,0,0,1,.272-2.323" transform="translate(-77.357 -69.361)" fill="#ee7329"/>
      <path id="Path_1245" data-name="Path 1245" d="M85.4,158.208a1.246,1.246,0,0,0-.2.029c-.093.022-.219.047-.381.079s-.362.047-.606.068-.535.036-.879.04H74.808c-.237,0-.485,0-.736-.014s-.5-.022-.739-.036-.467-.036-.678-.057a2.073,2.073,0,0,1-.442-.086,2.74,2.74,0,0,1-.287-.115.542.542,0,0,0-.2-.057.173.173,0,0,0-.154.1,1.125,1.125,0,0,0-.1.309c-.01.04-.029.137-.065.291s-.068.341-.111.556-.086.434-.129.656-.075.424-.1.6a2.657,2.657,0,0,0-.043.373.616.616,0,0,0,.04.262.16.16,0,0,0,.155.082.185.185,0,0,0,.151-.065.483.483,0,0,0,.086-.194,1.921,1.921,0,0,1,.119-.319,3.011,3.011,0,0,1,.247-.434,1.052,1.052,0,0,1,.409-.362,2.081,2.081,0,0,1,.656-.187,8.854,8.854,0,0,1,1.023-.075l3.209-.086v8.829c0,.664,0,1.285,0,1.87s-.014,1.1-.029,1.565-.04.847-.075,1.152a2.686,2.686,0,0,1-.176.794.616.616,0,0,1-.449.391c-.1.022-.208.043-.337.061a3.9,3.9,0,0,1-.438.025.553.553,0,0,0-.269.047.138.138,0,0,0-.075.125.173.173,0,0,0,.112.165.814.814,0,0,0,.319.05c.219,0,.459,0,.718-.011l.775-.021.711-.022c.212-.007.384-.011.51-.011.2,0,.481.008.829.018s.739.018,1.177.029.9.018,1.375.018a.753.753,0,0,0,.295-.05.182.182,0,0,0,.115-.165.139.139,0,0,0-.082-.125.549.549,0,0,0-.262-.047c-.108,0-.23,0-.363-.011l-.387-.032c-.13-.014-.244-.029-.348-.043a.877.877,0,0,1-.492-.2.907.907,0,0,1-.244-.409,2.645,2.645,0,0,1-.1-.549c-.036-.312-.061-.7-.076-1.166s-.025-.991-.028-1.572,0-1.206,0-1.87v-8.829l2.713.065a5.4,5.4,0,0,1,1.5.208,1.773,1.773,0,0,1,.79.445.888.888,0,0,1,.251.552l.021.237a1.045,1.045,0,0,0,.061.337.182.182,0,0,0,.176.093.143.143,0,0,0,.137-.093.764.764,0,0,0,.057-.251c0-.147,0-.334.011-.564s.014-.474.021-.725.015-.492.022-.707.011-.384.011-.5a1.222,1.222,0,0,0-.029-.348.136.136,0,0,0-.144-.1" transform="translate(-41.435 -92.22)" fill="#ee7329"/>
      <path id="Path_1246" data-name="Path 1246" d="M124.747,178.081c-.072,0-.144,0-.208,0a2.022,2.022,0,0,1-.244-.039,2.9,2.9,0,0,1-1.1-.438,5.81,5.81,0,0,1-.926-.768c-.567-.574-1.191-1.267-1.877-2.086s-1.443-1.744-2.279-2.782a11.428,11.428,0,0,0,1.5-1.407,5.038,5.038,0,0,0,.854-1.32,3.285,3.285,0,0,0,.27-1.321,2.891,2.891,0,0,0-.133-.862,3.176,3.176,0,0,0-.334-.721,3.547,3.547,0,0,0-.434-.563,2.764,2.764,0,0,0-.434-.373,4.044,4.044,0,0,0-1.113-.5,6.773,6.773,0,0,0-1.238-.222,12.356,12.356,0,0,0-1.245-.054c-.151,0-.355,0-.614.008s-.539.007-.836.014-.582.011-.847.014-.484.008-.654.008c-.1,0-.24,0-.427-.008s-.4-.007-.639-.014-.488-.011-.75-.014-.517-.008-.768-.008a1.041,1.041,0,0,0-.319.036c-.075.029-.111.072-.111.137a.158.158,0,0,0,.09.144.481.481,0,0,0,.233.05c.144,0,.287,0,.427.015a1.853,1.853,0,0,1,.327.05,1.636,1.636,0,0,1,.47.194.66.66,0,0,1,.251.3,1.445,1.445,0,0,1,.1.5c0,.111.007.233.011.359s0,.28.007.456,0,.4,0,.664v5.628c0,.563,0,1.091,0,1.586s-.01.937-.022,1.328-.032.721-.061.983a2.045,2.045,0,0,1-.158.654.559.559,0,0,1-.4.316,1.99,1.99,0,0,1-.294.05c-.108.01-.233.014-.373.014a.385.385,0,0,0-.24.065.158.158,0,0,0-.061.129.155.155,0,0,0,.094.144.617.617,0,0,0,.272.05c.194,0,.4,0,.632-.011l.678-.022q.334-.011.6-.022c.18-.007.319-.01.413-.01.075,0,.215,0,.424.01s.459.015.746.022l.9.022q.463.011.883.011a.685.685,0,0,0,.284-.05.154.154,0,0,0,.1-.144.183.183,0,0,0-.061-.129.268.268,0,0,0-.176-.065c-.079,0-.176,0-.284-.007s-.219-.011-.33-.022-.215-.022-.312-.036a.882.882,0,0,1-.434-.169.687.687,0,0,1-.208-.33,2.286,2.286,0,0,1-.09-.47c-.029-.262-.05-.585-.065-.976s-.029-.833-.036-1.328-.007-1.023-.007-1.593v-.259a.136.136,0,0,1,.043-.115.154.154,0,0,1,.107-.036l1.7.043a.572.572,0,0,1,.18.025.4.4,0,0,1,.165.1c.061.072.151.2.273.37s.265.377.427.614.337.484.524.746.373.517.564.768q.522.711.958,1.238a8.553,8.553,0,0,0,.826.89,3.669,3.669,0,0,0,.8.564,2.747,2.747,0,0,0,.52.208,4.055,4.055,0,0,0,.654.122c.247.025.545.036.893.036h1.809a.7.7,0,0,0,.273-.04.157.157,0,0,0,.093-.155.182.182,0,0,0-.061-.129.268.268,0,0,0-.176-.065m-7.624-6.547a1.316,1.316,0,0,1-.323.183,1.628,1.628,0,0,1-.4.094,5.712,5.712,0,0,1-.61.025c-.24,0-.492-.011-.747-.036a3.774,3.774,0,0,1-.7-.137.288.288,0,0,1-.136-.115.439.439,0,0,1-.036-.208v-5.448a.3.3,0,0,1,.036-.169.241.241,0,0,1,.136-.09,3.151,3.151,0,0,1,.456-.05c.2-.011.424-.015.664-.015a3,3,0,0,1,.729.09,2.921,2.921,0,0,1,.772.308,2.684,2.684,0,0,1,.693.592,2.8,2.8,0,0,1,.5.93,4.286,4.286,0,0,1,.194,1.332,4.039,4.039,0,0,1-.19,1.281,2.837,2.837,0,0,1-.459.883,2.738,2.738,0,0,1-.578.549" transform="translate(-64.09 -96.049)" fill="#ee7329"/>
      <path id="Path_1247" data-name="Path 1247" d="M223,164.221a.121.121,0,0,0-.126-.09,1.319,1.319,0,0,0-.168.025c-.083.018-.2.04-.348.061s-.312.043-.524.058-.467.029-.768.029h-7.688c-.316,0-.642-.007-.973-.018s-.639-.036-.923-.068a2.387,2.387,0,0,1-.531-.133.956.956,0,0,0-.287-.082.157.157,0,0,0-.132.082.862.862,0,0,0-.083.262c-.01.032-.028.122-.057.258s-.065.3-.1.5-.079.392-.115.593-.068.38-.093.534a2.577,2.577,0,0,0-.039.334.467.467,0,0,0,.039.223.138.138,0,0,0,.133.079.162.162,0,0,0,.14-.061.475.475,0,0,0,.075-.176,2.355,2.355,0,0,1,.1-.265,2.038,2.038,0,0,1,.219-.359.963.963,0,0,1,.356-.323,1.786,1.786,0,0,1,.574-.172,6.52,6.52,0,0,1,.9-.065l2.821-.065v7.408c0,.564,0,1.091,0,1.587s-.011.936-.022,1.328-.033.721-.061.983a2.054,2.054,0,0,1-.158.653.56.56,0,0,1-.4.316,1.616,1.616,0,0,1-.283.05c-.115.011-.244.014-.384.014a.385.385,0,0,0-.24.065.158.158,0,0,0-.061.13.155.155,0,0,0,.093.144.619.619,0,0,0,.273.05c.194,0,.405,0,.646-.011l.714-.022.653-.021q.3-.011.463-.011c.183,0,.434.007.754.018s.679.018,1.077.029.808.018,1.228.018a.616.616,0,0,0,.265-.05.157.157,0,0,0,.1-.144.168.168,0,0,0-.068-.13.393.393,0,0,0-.233-.065c-.093,0-.2,0-.319-.007s-.23-.011-.344-.022-.215-.021-.305-.036a.853.853,0,0,1-.423-.169.673.673,0,0,1-.215-.323,2.15,2.15,0,0,1-.093-.456c-.029-.27-.05-.6-.065-1s-.029-.84-.036-1.335-.007-1.023-.007-1.587V165.38l2.391.043a4.628,4.628,0,0,1,1.328.176,1.542,1.542,0,0,1,.689.4.806.806,0,0,1,.223.481l.021.194a.73.73,0,0,0,.061.287.154.154,0,0,0,.154.079.122.122,0,0,0,.119-.079.7.7,0,0,0,.054-.223c0-.122,0-.287.007-.492s.007-.42.015-.65.011-.438.014-.631.007-.345.007-.445a1.023,1.023,0,0,0-.025-.3" transform="translate(-122.549 -95.688)" fill="#ee7329"/>
      <path id="Path_1248" data-name="Path 1248" d="M192.778,171.123a9.22,9.22,0,0,0-1.96-1.393l-.775-.431a8.486,8.486,0,0,1-1.03-.66,3.349,3.349,0,0,1-.61-.6,1.691,1.691,0,0,1-.287-.567,2.01,2.01,0,0,1-.075-.589,1.709,1.709,0,0,1,.212-.833,1.91,1.91,0,0,1,.571-.617,2.784,2.784,0,0,1,.826-.381,3.634,3.634,0,0,1,.976-.129,3.372,3.372,0,0,1,1.03.147,2.365,2.365,0,0,1,.682.337,2.34,2.34,0,0,1,.711.861,2.3,2.3,0,0,1,.147.438,1.327,1.327,0,0,1,.036.284q0,.323.194.323c.075,0,.133-.05.176-.147a1.2,1.2,0,0,0,.061-.434c0-.477.007-.865.018-1.159s.018-.524.029-.682.018-.28.018-.355a.185.185,0,0,0-.065-.151.489.489,0,0,0-.194-.086,9.179,9.179,0,0,0-1.07-.2,13.1,13.1,0,0,0-1.622-.1,6.584,6.584,0,0,0-1.856.259A4.914,4.914,0,0,0,187.4,165a3.561,3.561,0,0,0-1.03,1.159,3.161,3.161,0,0,0-.377,1.522,3.947,3.947,0,0,0,.273,1.5,4.069,4.069,0,0,0,.933,1.35,8.717,8.717,0,0,0,1.766,1.3l1.1.646a6.4,6.4,0,0,1,1,.71,2.982,2.982,0,0,1,.567.654,1.933,1.933,0,0,1,.248.621,2.636,2.636,0,0,1,.057.6,2.2,2.2,0,0,1-1.216,2.01,3.069,3.069,0,0,1-1.411.316,4.447,4.447,0,0,1-.912-.093,3.46,3.46,0,0,1-.886-.3,2.5,2.5,0,0,1-.739-.56,2.2,2.2,0,0,1-.477-.854,3.484,3.484,0,0,1-.126-.506,2.448,2.448,0,0,1-.046-.442.465.465,0,0,0-.033-.2.164.164,0,0,0-.162-.1.2.2,0,0,0-.176.132.816.816,0,0,0-.061.341c-.007.079-.014.2-.025.37s-.025.362-.036.589-.025.467-.032.718-.015.506-.015.757a1.235,1.235,0,0,0,.029.316.316.316,0,0,0,.107.18.8.8,0,0,0,.23.129,4.66,4.66,0,0,0,.919.287,8.851,8.851,0,0,0,1.055.144c.369.028.736.043,1.105.043a10.163,10.163,0,0,0,1.07-.05,5.7,5.7,0,0,0,1.1-.222,3.515,3.515,0,0,0,1-.481,5.178,5.178,0,0,0,1.106-1.016,3.562,3.562,0,0,0,.6-1.134,4.114,4.114,0,0,0,.187-1.274,4.067,4.067,0,0,0-.294-1.579,4.365,4.365,0,0,0-1.019-1.465" transform="translate(-108.281 -95.688)" fill="#ee7329"/>
      <path id="Path_1249" data-name="Path 1249" d="M158.419,164.658a.861.861,0,0,0-.291-.036c-.187,0-.395,0-.624.007s-.456.007-.679.015-.416.01-.581.014-.276.007-.334.007l-.226-.007c-.14,0-.323-.007-.549-.014s-.467-.011-.725-.015-.514-.007-.761-.007a.862.862,0,0,0-.291.036.141.141,0,0,0-.1.137q0,.194.323.194c.115,0,.237,0,.369.014a1.81,1.81,0,0,1,.319.05,1.54,1.54,0,0,1,.467.194.639.639,0,0,1,.24.3,1.678,1.678,0,0,1,.09.5c0,.111.011.233.014.359s.007.28.011.456.007.4.011.664,0,.592,0,.984,0,.861,0,1.414v2.3q.006.705-.022,1.346a8.381,8.381,0,0,1-.132,1.213,4.157,4.157,0,0,1-.327,1.048,2.807,2.807,0,0,1-.617.851,3.245,3.245,0,0,1-.811.578,3.7,3.7,0,0,1-.876.3,3.955,3.955,0,0,1-.854.09,5.3,5.3,0,0,1-.721-.043,3.51,3.51,0,0,1-.818-.2,3.269,3.269,0,0,1-.851-.488,3.208,3.208,0,0,1-.617-.628,3.245,3.245,0,0,1-.452-.861,5.855,5.855,0,0,1-.276-1.231,13.089,13.089,0,0,1-.1-1.715v-3.977c0-.392,0-.718,0-.984s0-.488.007-.664.007-.33.011-.456.014-.248.022-.359a1.469,1.469,0,0,1,.176-.707.713.713,0,0,1,.513-.284c.115-.022.208-.04.287-.05a2.127,2.127,0,0,1,.273-.014.413.413,0,0,0,.222-.05.153.153,0,0,0,.079-.143.14.14,0,0,0-.1-.137.939.939,0,0,0-.309-.036c-.176,0-.377,0-.6.007s-.459.007-.693.015-.456.01-.653.014-.362.007-.485.007c-.193,0-.445,0-.761-.011l-1.019-.021c-.366-.007-.718-.011-1.063-.011a.938.938,0,0,0-.309.036.14.14,0,0,0-.1.137q0,.194.323.194c.133,0,.269,0,.406.014a1.842,1.842,0,0,1,.327.05,1.729,1.729,0,0,1,.47.19.627.627,0,0,1,.251.294,1.511,1.511,0,0,1,.1.506c.007.111.014.233.018.359s.007.28.007.456,0,.4,0,.664v.984c0,.391,0,.861,0,1.414v2.692a9.6,9.6,0,0,0,.234,2.247,5.376,5.376,0,0,0,.614,1.558,4.335,4.335,0,0,0,2,1.744,5.806,5.806,0,0,0,1.192.373,8.364,8.364,0,0,0,1.116.147c.348.018.65.029.9.025a8.042,8.042,0,0,0,1.289-.093,5.793,5.793,0,0,0,1.357-.38,5.333,5.333,0,0,0,1.36-.84,4.17,4.17,0,0,0,.955-1.127,5.589,5.589,0,0,0,.549-1.353,9.237,9.237,0,0,0,.247-1.493c.04-.513.061-1.027.057-1.54V169.92c0-.553,0-1.023,0-1.414s0-.718.007-.984,0-.488.007-.664.007-.33.015-.456.007-.248.011-.359a2.256,2.256,0,0,1,.082-.524.62.62,0,0,1,.208-.316.88.88,0,0,1,.4-.151c.115-.022.208-.04.287-.05a2.122,2.122,0,0,1,.273-.014q.323,0,.323-.194a.141.141,0,0,0-.1-.137" transform="translate(-83.516 -96.05)" fill="#ee7329"/>
      <path id="Path_1250" data-name="Path 1250" d="M244.127,157.394v.343h-1.174v3.233H242.5v-3.233h-1.206v-.343Zm1.566,0,1.172,2.968,1.094-2.968h.689v3.576h-.4v-3.233l-1.22,3.233H246.7l-1.28-3.233v3.233h-.406v-3.576Z" transform="translate(-140.785 -91.833)" fill="#1d1d1b"/>
    </g>
  </g>
  <text id="_" data-name=" " transform="matrix(0.902, 0.432, -0.432, 0.902, 89.521, 10.321)" fill="#1d1d1b" font-size="1" font-family="Avenir-Heavy, Avenir" font-weight="800"><tspan x="0" y="0"> </tspan></text>
  <text id="_2" data-name=" " transform="translate(66.959 116.524) rotate(-3.704)" fill="#fff" font-size="1" font-family="Avenir-Heavy, Avenir" font-weight="800"><tspan x="0" y="0"> </tspan></text>
  <g id="Group_644" data-name="Group 644">
    <g id="Group_643" data-name="Group 643" clip-path="url(#clip-path)">
      <path id="Path_1251" data-name="Path 1251" d="M79.682,263.019a.97.97,0,0,0-.177-.542,1.557,1.557,0,0,0-.427-.418,1.466,1.466,0,0,0-.319-.16.952.952,0,0,0-.331-.059.671.671,0,0,0-.575.319.541.541,0,0,0-.079.5,2.052,2.052,0,0,0,.279.514q.192.267.439.56a2.772,2.772,0,0,1,.4.622,1.675,1.675,0,0,1,.15.709,1.508,1.508,0,0,1-.291.816,1.848,1.848,0,0,1-.6.595,1.7,1.7,0,0,1-.717.23,2.047,2.047,0,0,1-.766-.087,2.9,2.9,0,0,1-.752-.358,3.1,3.1,0,0,1-.781-.736,2.037,2.037,0,0,1-.389-1l1.083-.2a1.32,1.32,0,0,0,.17.656,1.412,1.412,0,0,0,.462.5,1.4,1.4,0,0,0,.333.16,1.124,1.124,0,0,0,.361.059.78.78,0,0,0,.342-.079.68.68,0,0,0,.272-.245.615.615,0,0,0,.1-.532,1.842,1.842,0,0,0-.267-.531c-.127-.181-.272-.368-.437-.564a2.85,2.85,0,0,1-.4-.619,1.641,1.641,0,0,1-.155-.7,1.487,1.487,0,0,1,.289-.813,1.59,1.59,0,0,1,.593-.557,1.714,1.714,0,0,1,.716-.19,2.141,2.141,0,0,1,.762.11,2.983,2.983,0,0,1,.726.351,2.917,2.917,0,0,1,.676.617,2.086,2.086,0,0,1,.4.823Z" transform="translate(-43.608 -152.204)" fill="#fff"/>
      <rect id="Rectangle_738" data-name="Rectangle 738" width="5.898" height="1.05" transform="matrix(0.457, -0.889, 0.889, 0.457, 37.642, 117.054)" fill="#fff"/>
      <path id="Path_1252" data-name="Path 1252" d="M103.821,273.227l1.308.475,1.19,5.094.015.006,1.5-4.119.986.358-2.013,5.545-1.253-.455-1.2-5.247-.015-.006-1.544,4.252-.986-.358Z" transform="translate(-59.401 -159.417)" fill="#fff"/>
      <path id="Path_1253" data-name="Path 1253" d="M129.055,282.266a1.767,1.767,0,0,0-.529-.577,1.7,1.7,0,0,0-.579-.23,2.044,2.044,0,0,0-.845,0,1.894,1.894,0,0,0-.711.321,2.048,2.048,0,0,0-.532.58,2.308,2.308,0,0,0-.3.783,2.523,2.523,0,0,0-.022.886,2.045,2.045,0,0,0,.274.757,1.915,1.915,0,0,0,.539.57,1.994,1.994,0,0,0,.783.32,1.521,1.521,0,0,0,.715-.036,1.893,1.893,0,0,0,.721-.417l.734.769a2.358,2.358,0,0,1-1.108.6,3.039,3.039,0,0,1-1.25.014,3.454,3.454,0,0,1-1.19-.454,2.814,2.814,0,0,1-1.3-1.875,3.277,3.277,0,0,1,.009-1.279,3.423,3.423,0,0,1,.473-1.22,2.878,2.878,0,0,1,.821-.847,2.824,2.824,0,0,1,1.084-.432,3.454,3.454,0,0,1,1.273.02,2.886,2.886,0,0,1,1.052.419,2.6,2.6,0,0,1,.8.888Z" transform="translate(-72.582 -163.633)" fill="#fff"/>
      <path id="Path_1254" data-name="Path 1254" d="M144.928,282.636l3.9.187-.045.949-2.854-.137-.07,1.448,2.7.13-.045.948-2.7-.13-.077,1.6,3,.144-.045.949-4.053-.194Z" transform="translate(-84.394 -164.906)" fill="#fff"/>
      <path id="Path_1255" data-name="Path 1255" d="M175.119,285.932l1.868-2.583c.054-.077.11-.159.168-.246a1.979,1.979,0,0,0,.151-.268,1.422,1.422,0,0,0,.1-.284.759.759,0,0,0-.119-.6.765.765,0,0,0-.227-.2.843.843,0,0,0-.294-.1.976.976,0,0,0-.333,0,.887.887,0,0,0-.569.321.919.919,0,0,0-.185.625l-1.048.1a1.89,1.89,0,0,1,.067-.744,1.613,1.613,0,0,1,.324-.586,1.819,1.819,0,0,1,.535-.417,2.434,2.434,0,0,1,.711-.236,2.6,2.6,0,0,1,.753-.028,1.816,1.816,0,0,1,.648.2,1.431,1.431,0,0,1,.493.442,1.713,1.713,0,0,1,.277.7,1.772,1.772,0,0,1-.082.992,3.809,3.809,0,0,1-.509.873l-1.5,1.984,2.69-.478.157.886-3.888.691Z" transform="translate(-101.883 -163.757)" fill="#fff"/>
      <path id="Path_1256" data-name="Path 1256" d="M191.945,280.094a5.465,5.465,0,0,1-.259-1.173,3.253,3.253,0,0,1,.026-.883,1.988,1.988,0,0,1,.227-.642,1.774,1.774,0,0,1,.35-.436,1.823,1.823,0,0,1,.394-.271,2.653,2.653,0,0,1,.359-.151,2.708,2.708,0,0,1,.379-.087,1.815,1.815,0,0,1,.478-.009,1.78,1.78,0,0,1,.539.15,1.983,1.983,0,0,1,.558.389,3.3,3.3,0,0,1,.537.7,6.4,6.4,0,0,1,.732,2.276,3.254,3.254,0,0,1-.026.884,1.99,1.99,0,0,1-.227.642,1.776,1.776,0,0,1-.35.436,1.822,1.822,0,0,1-.394.271,2.6,2.6,0,0,1-.359.151,2.722,2.722,0,0,1-.379.087,1.819,1.819,0,0,1-.478.009,1.782,1.782,0,0,1-.539-.15,1.977,1.977,0,0,1-.558-.389,3.264,3.264,0,0,1-.536-.7,5.491,5.491,0,0,1-.473-1.1m.951-.306a6.149,6.149,0,0,0,.231.6,2.908,2.908,0,0,0,.357.607,1.471,1.471,0,0,0,.494.419.913.913,0,0,0,1.142-.367,1.47,1.47,0,0,0,.157-.628,2.915,2.915,0,0,0-.064-.7q-.076-.356-.16-.618a6.343,6.343,0,0,0-.231-.6,2.946,2.946,0,0,0-.357-.607,1.476,1.476,0,0,0-.494-.419.912.912,0,0,0-1.142.367,1.458,1.458,0,0,0-.157.628,2.913,2.913,0,0,0,.064.7,6.333,6.333,0,0,0,.16.618" transform="translate(-111.83 -161.286)" fill="#fff"/>
      <path id="Path_1257" data-name="Path 1257" d="M208.6,273.772a5.514,5.514,0,0,1-.414-1.127,3.269,3.269,0,0,1-.093-.879,1.976,1.976,0,0,1,.138-.666,1.782,1.782,0,0,1,.288-.479,1.8,1.8,0,0,1,.354-.322,2.654,2.654,0,0,1,.335-.2,2.541,2.541,0,0,1,.364-.137,1.786,1.786,0,0,1,1.027,0,1.986,1.986,0,0,1,.606.311,3.267,3.267,0,0,1,.626.624,6.4,6.4,0,0,1,1.032,2.156,3.256,3.256,0,0,1,.093.879,1.994,1.994,0,0,1-.137.666,1.812,1.812,0,0,1-.288.48,1.837,1.837,0,0,1-.354.322,2.691,2.691,0,0,1-.335.2,2.657,2.657,0,0,1-.364.137,1.814,1.814,0,0,1-.473.074,1.772,1.772,0,0,1-.554-.077,1.988,1.988,0,0,1-.606-.31,3.269,3.269,0,0,1-.626-.624,5.492,5.492,0,0,1-.617-1.03m.9-.432a6.161,6.161,0,0,0,.309.559,2.9,2.9,0,0,0,.436.554,1.468,1.468,0,0,0,.546.349.913.913,0,0,0,1.082-.518,1.468,1.468,0,0,0,.071-.644,2.9,2.9,0,0,0-.158-.687,6.2,6.2,0,0,0-.241-.591,6.271,6.271,0,0,0-.309-.558,2.906,2.906,0,0,0-.436-.554,1.468,1.468,0,0,0-.545-.348.913.913,0,0,0-1.083.518,1.468,1.468,0,0,0-.071.644,2.941,2.941,0,0,0,.158.686,6.246,6.246,0,0,0,.242.591" transform="translate(-121.411 -157.469)" fill="#fff"/>
      <path id="Path_1258" data-name="Path 1258" d="M225.412,266.614l.7-3.11q.029-.138.057-.292a1.958,1.958,0,0,0,.033-.306,1.432,1.432,0,0,0-.022-.3.725.725,0,0,0-.109-.272.713.713,0,0,0-.237-.233.755.755,0,0,0-.29-.1.823.823,0,0,0-.311.02.971.971,0,0,0-.3.135.89.89,0,0,0-.4.519.918.918,0,0,0,.076.648l-.923.506a1.868,1.868,0,0,1-.232-.71,1.62,1.62,0,0,1,.066-.666,1.817,1.817,0,0,1,.328-.594,2.44,2.44,0,0,1,.56-.5,2.566,2.566,0,0,1,.681-.322,1.8,1.8,0,0,1,.674-.074,1.445,1.445,0,0,1,.627.211,1.722,1.722,0,0,1,.532.538,1.77,1.77,0,0,1,.316.944,3.786,3.786,0,0,1-.124,1l-.6,2.415,2.285-1.5.494.752-3.3,2.167Z" transform="translate(-130.37 -152.26)" fill="#fff"/>
      <path id="Path_1259" data-name="Path 1259" d="M65,.417A64.583,64.583,0,1,1,.417,65,64.583,64.583,0,0,1,65,.417M65,0A65,65,0,0,0,19.038,110.962a65,65,0,1,0,91.924-91.924A64.575,64.575,0,0,0,65,0" transform="translate(0 0)" fill="#ee7329"/>
    </g>
  </g>
</svg>
